<svg width="826" height="670" viewBox="0 0 826 670" fill="none" xmlns="http://www.w3.org/2000/svg">
<g id="completeImg" clip-path="url(#clip0)">
<path id="Vector" opacity="0.2" d="M747.786 240.928H700.111V263.914H747.786V240.928Z" fill="#6C63FF"/>
<path id="Vector_2" opacity="0.2" d="M751.453 269.022H703.779V292.008H751.453V269.022Z" fill="#6C63FF"/>
<path id="Vector_3" opacity="0.2" d="M712.03 74.0661H664.355V97.0521H712.03V74.0661Z" fill="#6C63FF"/>
<path id="Vector_4" opacity="0.2" d="M745.952 100.457H698.278V123.443H745.952V100.457Z" fill="#6C63FF"/>
<path id="Vector_5" opacity="0.2" d="M654.27 75.7687H606.596V98.7548H654.27V75.7687Z" fill="#6C63FF"/>
<path id="Vector_6" opacity="0.2" d="M807.379 126.849H759.705V149.835H807.379V126.849Z" fill="#6C63FF"/>
<path id="Vector_7" opacity="0.2" d="M749.62 128.551H701.945V151.537H749.62V128.551Z" fill="#6C63FF"/>
<path id="Vector_8" opacity="0.2" d="M688.193 102.16H640.518V125.146H688.193V102.16Z" fill="#6C63FF"/>
<path id="Vector_9" opacity="0.2" d="M804.629 303.926H756.954V326.912H804.629V303.926Z" fill="#6C63FF"/>
<path id="Vector_10" opacity="0.2" d="M746.869 305.629H699.195V328.615H746.869V305.629Z" fill="#6C63FF"/>
<path id="Vector_11" d="M119.874 234.968C119.874 234.968 187.068 297.363 149.139 389.911C111.21 482.46 214.151 636.492 214.151 636.492C214.151 636.492 213.051 636.338 211.006 636.006C73.0064 613.386 4.43743 466.829 81.2119 357.986C109.707 317.471 133.122 269.992 119.874 234.968Z" fill="#6C63FF"/>
<path id="Vector_12" d="M119.874 234.968C119.874 234.968 157.803 311.452 119.874 373.838C81.9454 436.224 113.374 611.36 214.16 636.492" stroke="#535461" stroke-width="2" stroke-miterlimit="10"/>
<path id="Vector_13" d="M0.192535 487.321C0.192535 487.321 76.8662 475.981 83.8524 539.788C90.8386 603.596 231.295 612.441 231.295 612.441C231.295 612.441 230.379 613.02 228.664 614.067C112.696 684.728 1.84281 659.094 18.5564 565.235C24.7633 530.339 24.2499 495.289 0.192535 487.321Z" fill="#6C63FF"/>
<path id="Vector_14" opacity="0.2" d="M0.192535 487.321C0.192535 487.321 76.8662 475.981 83.8524 539.788C90.8386 603.596 231.295 612.441 231.295 612.441C231.295 612.441 230.379 613.02 228.664 614.067C112.696 684.728 1.84281 659.094 18.5564 565.235C24.7633 530.339 24.2499 495.289 0.192535 487.321Z" fill="#F5F5F5"/>
<path id="Vector_15" d="M0.192535 487.321C0.192535 487.321 59.7033 499.452 54.8167 549.698C49.93 599.944 143.198 660.21 231.295 612.441" stroke="#535461" stroke-width="2" stroke-miterlimit="10"/>
<path id="Vector_16" opacity="0.2" d="M48.2522 241.779H0.577591V264.765H48.2522V241.779Z" fill="#6C63FF"/>
<path id="Vector_17" opacity="0.2" d="M82.1746 268.17H34.4999V291.156H82.1746V268.17Z" fill="#6C63FF"/>
<path id="Vector_18" opacity="0.2" d="M339.801 0H292.126V22.986H339.801V0Z" fill="#6C63FF"/>
<path id="Vector_19" opacity="0.2" d="M715.697 423.964H668.023V446.95H715.697V423.964Z" fill="#6C63FF"/>
<path id="Vector_20" opacity="0.2" d="M85.8419 296.264H38.1672V319.25H85.8419V296.264Z" fill="#6C63FF"/>
<path id="Vector_21" opacity="0.2" d="M373.723 26.3914H326.049V49.3774H373.723V26.3914Z" fill="#6C63FF"/>
<path id="Vector_22" opacity="0.2" d="M199.528 182.186H151.853V205.172H199.528V182.186Z" fill="#6C63FF"/>
<path id="Vector_23" opacity="0.2" d="M233.45 208.577H185.775V231.563H233.45V208.577Z" fill="#6C63FF"/>
<path id="Vector_24" opacity="0.2" d="M324.215 194.104H276.54V217.09H324.215V194.104Z" fill="#6C63FF"/>
<path id="Vector_25" opacity="0.2" d="M237.117 236.671H189.443V259.657H237.117V236.671Z" fill="#6C63FF"/>
<path id="Vector_26" opacity="0.2" d="M779.875 423.964H732.2V446.95H779.875V423.964Z" fill="#6C63FF"/>
<path id="Vector_27" d="M660.706 332.965C657.62 317.013 655.726 300.881 655.041 284.686C654.431 271.348 649.394 258.512 640.619 247.938C631.844 237.363 619.761 229.568 606.027 225.621C601.021 224.19 595.511 222.854 589.424 221.653C536.065 211.131 519.855 220.317 518.013 221.526C516.452 218.891 515.095 216.157 513.951 213.344C513.859 213.055 513.777 212.765 513.685 212.493C524.246 202.036 530.68 188.565 531.939 174.277C540.841 165.899 546.04 155.786 546.04 144.897C546.04 135.532 542.189 126.747 535.451 119.144V104.348C535.451 87.2852 528.151 70.9213 515.158 58.8561C502.164 46.7909 484.542 40.0127 466.166 40.0127H460.546C451.448 40.0127 442.438 41.6768 434.032 44.9099C425.627 48.1431 417.989 52.882 411.555 58.8561C405.121 64.8302 400.018 71.9224 396.536 79.728C393.054 87.5335 391.262 95.8994 391.262 104.348V120.294C385.147 127.624 381.681 135.992 381.681 144.88C381.681 155.539 386.669 165.448 395.232 173.723C396.402 188.535 403.131 202.496 414.247 213.174C414.623 215.592 415.008 218.188 415.384 220.93L319.943 239.651C319.943 239.651 283.142 241.055 259.433 286.474C239.382 324.946 199.482 423.786 187.664 453.208C185.528 458.537 184.318 461.593 184.318 461.593C184.318 461.593 184.712 461.227 185.454 460.597L184.318 463.466C184.318 463.466 184.895 462.921 185.995 462.028C184.327 474.338 184.088 495.477 201.453 498.107C216.012 500.312 253.528 501.223 281.867 501.589H283.829C302.615 501.819 316.908 501.819 316.908 501.819V501.589H621.696V498.686C621.699 496.053 621.129 493.447 620.018 491.024L620.44 490.547C622.071 492.547 623.156 494.884 623.603 497.358C623.568 497.599 623.519 497.837 623.456 498.073L623.639 497.639C623.711 498.412 623.649 499.191 623.456 499.946C623.456 499.946 662.559 406.393 662.137 350.528C662.249 344.645 661.77 338.766 660.706 332.965V332.965ZM416.97 233.572C416.465 230.903 416.14 228.208 415.998 225.501C415.998 225.501 415.998 225.45 415.998 225.425C416.337 228.055 416.667 230.78 416.97 233.572ZM298.498 434.521V456.817L283.462 459.806L298.498 434.521Z" fill="url(#paint0_linear)"/>
<path id="Vector_28" d="M461.811 49.0113C480.187 49.0113 497.809 55.7895 510.803 67.8547C523.796 79.9199 531.096 96.2838 531.096 113.347V140.794H392.527V113.347C392.527 96.2838 399.827 79.9199 412.82 67.8547C425.814 55.7895 443.436 49.0113 461.811 49.0113V49.0113Z" fill="#E14B5A"/>
<path id="Vector_29" d="M462.297 200.183C505.914 200.183 541.272 177.622 541.272 149.792C541.272 121.962 505.914 99.4018 462.297 99.4018C418.681 99.4018 383.323 121.962 383.323 149.792C383.323 177.622 418.681 200.183 462.297 200.183Z" fill="#E14B5A"/>
<path id="Vector_30" d="M411.671 198.608C411.671 198.608 428.173 278.693 411.671 300.291C395.168 321.889 462.096 330.437 462.096 330.437L531.371 307.042L541.061 249.449C541.061 249.449 498.888 227.4 507.625 182.858L411.671 198.608Z" fill="#F7C4A7"/>
<path id="Vector_31" d="M616.14 468.566C616.14 468.566 620.504 486.112 596.758 489.262C582.738 491.177 568.479 491.019 554.511 488.794L549.276 444.72H604.515L616.14 468.566Z" fill="#F7C4A7"/>
<path id="Vector_32" d="M196.841 446.108C196.841 446.108 186.353 485.686 210.099 489.262C233.844 492.837 321.034 492.863 321.034 492.863V446.039L281.555 453.872L244.498 420.874L196.841 446.108Z" fill="#F7C4A7"/>
<path id="Vector_33" opacity="0.1" d="M416.768 224.48L323.977 242.698C323.977 242.698 288.606 244.052 265.832 287.691C243.058 331.331 193.632 455.966 193.632 455.966C193.632 455.966 235.806 416.371 285.214 458.665L318.164 403.328L310.894 491.067H566.21V449.666C566.21 449.666 619.505 476.211 615.636 491.058C615.636 491.058 661.247 381.934 651.392 332.344C648.425 317.013 646.605 301.51 645.946 285.946V285.946C645.364 273.127 640.523 260.79 632.089 250.628C623.655 240.466 612.04 232.976 598.84 229.188C594.035 227.817 588.754 226.532 582.887 225.382C528.134 214.587 514.125 225.382 514.125 225.382C514.125 225.382 503.518 257.426 503.71 271.95C503.949 290.62 475.124 302.998 475.124 302.998C475.124 302.998 432.482 293.549 430.548 285.904C428.613 278.259 413.358 233.478 416.768 224.48Z" fill="black"/>
<path id="Vector_34" d="M416.768 222.683L323.977 240.902C323.977 240.902 288.606 242.256 265.832 285.895C243.058 329.534 193.623 454.187 193.623 454.187C193.623 454.187 235.797 414.591 285.204 456.885L318.155 401.549L310.885 489.262H566.21V447.87C566.21 447.87 619.505 474.414 615.636 489.262C615.636 489.262 661.247 380.138 651.392 330.548C648.425 315.217 646.605 299.714 645.946 284.15V284.15C645.364 271.331 640.523 258.994 632.089 248.832C623.655 238.669 612.04 231.18 598.84 227.391C594.035 226.021 588.754 224.735 582.887 223.586C528.134 212.791 514.125 223.586 514.125 223.586C514.125 223.586 503.518 255.63 503.71 270.154C503.949 288.824 475.124 301.202 475.124 301.202C475.124 301.202 432.482 291.752 430.548 284.107C428.613 276.462 413.358 231.682 416.768 222.683Z" fill="#575988"/>
<path id="Vector_35" opacity="0.1" d="M511.586 218.861C507.688 208.614 506.814 197.585 509.055 186.919L413.101 202.66C413.101 202.66 414.485 209.394 416.053 219.482C422.253 225.456 429.696 230.197 437.931 233.416C446.166 236.634 455.019 238.264 463.954 238.206C472.888 238.148 481.716 236.403 489.902 233.077C498.087 229.752 505.458 224.915 511.567 218.861H511.586Z" fill="black"/>
<path id="Vector_36" d="M527.951 172.966C527.876 189.021 521.008 204.405 508.83 215.802C496.651 227.198 480.137 233.694 462.848 233.889C445.559 234.083 428.881 227.96 416.408 216.841C403.936 205.721 396.67 190.496 396.176 174.447C396.176 173.953 396.176 173.459 396.176 172.966C396.173 161.508 399.634 150.28 406.164 140.559C412.694 130.838 422.032 123.014 433.115 117.978C435.089 117.081 437.118 116.275 439.203 115.56C450.043 111.86 461.736 110.85 473.125 112.632V112.632C487.722 114.939 501.054 121.748 510.971 131.959C520.887 142.169 526.808 155.185 527.777 168.905C527.893 170.25 527.951 171.603 527.951 172.966Z" fill="#F7C4A7"/>
<g id="Group" opacity="0.1">
<path id="Vector_37" opacity="0.1" d="M439.102 116.999L439.194 116.948C437.109 117.663 435.08 118.469 433.106 119.366C422.023 124.402 412.685 132.226 406.155 141.947C399.625 151.668 396.164 162.896 396.167 174.353C396.167 174.847 396.167 175.341 396.167 175.835C398.216 175.783 400.23 175.334 402.081 174.515C418.143 167.551 427.752 146.251 431.566 131.395C432.941 126.074 434.234 120.081 439.102 116.999Z" fill="black"/>
<path id="Vector_38" opacity="0.1" d="M489.536 118.71C484.32 116.485 478.812 114.908 473.153 114.019C477.794 115.011 481.939 117.429 484.915 120.881C486.374 122.723 487.584 124.725 488.518 126.84C479.749 123.28 470.251 121.531 460.682 121.715C451.112 121.898 441.7 124.01 433.097 127.904C437.232 136.324 450.058 140.913 458.621 143.986C467.997 147.346 477.471 150.419 487.042 153.206L478.571 146.821L497.705 149.648C497.911 146.112 497.458 142.569 496.366 139.176C500.034 141.917 504.893 142.837 508.872 145.135C516.326 149.503 519.434 157.905 523.495 165.184C524.568 167.108 525.833 169.075 527.768 170.292C526.985 159.295 523.021 148.698 516.292 139.619C509.563 130.54 500.319 123.316 489.536 118.71V118.71Z" fill="black"/>
</g>
<path id="Vector_39" d="M439.102 115.611L439.194 115.56C437.109 116.275 435.08 117.081 433.106 117.978C422.023 123.014 412.685 130.838 406.155 140.559C399.625 150.28 396.164 161.508 396.167 172.966C396.167 173.459 396.167 173.953 396.167 174.447C398.216 174.395 400.23 173.946 402.081 173.127C418.143 166.163 427.752 144.863 431.566 130.007C432.941 124.72 434.234 118.702 439.102 115.611Z" fill="#632652"/>
<path id="Vector_40" d="M489.536 117.331C484.32 115.106 478.812 113.529 473.153 112.64C477.794 113.632 481.939 116.05 484.915 119.502C486.374 121.344 487.584 123.345 488.518 125.461C479.749 121.901 470.251 120.152 460.682 120.335C451.112 120.519 441.7 122.631 433.097 126.525C437.232 134.945 450.058 139.534 458.621 142.607C467.997 145.967 477.471 149.04 487.042 151.827L478.571 145.442L497.705 148.268C497.911 144.732 497.458 141.19 496.366 137.797C500.034 140.538 504.893 141.458 508.872 143.756C516.326 148.124 519.434 156.526 523.495 163.805C524.568 165.729 525.833 167.696 527.768 168.913C526.985 157.916 523.021 147.319 516.292 138.24C509.563 129.161 500.319 121.937 489.536 117.331V117.331Z" fill="#632652"/>
<path id="Vector_41" opacity="0.1" d="M388.649 162.877C388.649 162.877 456.494 84.5545 534.983 162.877L528.198 145.331C528.198 145.331 491.37 95.392 465.213 106.17C439.056 116.948 413.367 124.618 413.367 124.618L388.649 162.877Z" fill="black"/>
<path id="Vector_42" d="M388.649 161.49C388.649 161.49 456.494 83.1668 534.983 161.49L528.198 143.944C528.198 143.944 491.37 94.0043 465.213 104.782C439.056 115.56 413.367 123.231 413.367 123.231L388.649 161.49Z" fill="#E14B5A"/>
<path id="Vector_43" opacity="0.1" d="M332.925 330.216C332.925 330.216 318.393 366.21 338.738 398.603C359.082 430.996 320.814 444.499 320.814 444.499" fill="black"/>
<path id="Vector_44" opacity="0.1" d="M568.41 297.822C568.41 297.822 593.604 327.517 577.129 354.061C560.654 380.606 561.626 444.499 561.626 444.499" fill="black"/>
<path id="Vector_45" d="M310.637 471.043H590.698C596.867 471.043 602.783 473.319 607.145 477.369C611.507 481.42 613.958 486.913 613.958 492.642V492.642H287.386C287.386 486.915 289.836 481.422 294.196 477.372C298.556 473.322 304.47 471.045 310.637 471.043V471.043Z" fill="#535461"/>
<path id="Vector_46" d="M339.132 322.562H562.212C566.908 322.562 571.558 323.421 575.896 325.089C580.234 326.758 584.176 329.204 587.496 332.287C590.816 335.37 593.45 339.03 595.247 343.058C597.044 347.086 597.968 351.404 597.968 355.764V475.989H303.376V355.764C303.376 346.958 307.143 338.513 313.848 332.287C320.554 326.06 329.649 322.562 339.132 322.562V322.562Z" fill="#535461"/>
<path id="Vector_47" d="M450.425 422.228C460.06 422.228 467.872 414.974 467.872 406.027C467.872 397.079 460.06 389.826 450.425 389.826C440.789 389.826 432.978 397.079 432.978 406.027C432.978 414.974 440.789 422.228 450.425 422.228Z" fill="white"/>
<path id="Vector_48" opacity="0.1" d="M392.527 126.168C392.527 126.168 459.199 64.2928 531.105 125.035" stroke="black" stroke-miterlimit="10"/>
<path id="Vector_49" d="M547.947 122.226H541.254V157.463H547.947V122.226Z" fill="#6A5C99"/>
<path id="Vector_50" d="M532.324 145.025C538.442 145.025 544.309 147.281 548.635 151.298C552.961 155.315 555.391 160.764 555.391 166.444V167.824C555.391 173.504 552.961 178.952 548.635 182.969C544.309 186.986 538.442 189.243 532.324 189.243V189.243V145.025Z" fill="#FFD037"/>
<path id="Vector_51" d="M538.274 147.792C538.274 145.121 535.943 142.956 533.067 142.956C530.191 142.956 527.859 145.121 527.859 147.792V186.485C527.859 189.155 530.191 191.32 533.067 191.32C535.943 191.32 538.274 189.155 538.274 186.485V147.792Z" fill="#6A5C99"/>
<path id="Vector_52" d="M374.998 158.152H381.691V122.916H374.998V158.152Z" fill="#6A5C99"/>
<path id="Vector_53" d="M390.62 189.933C384.503 189.933 378.635 187.676 374.309 183.659C369.984 179.642 367.553 174.194 367.553 168.513V167.134C367.553 164.321 368.15 161.536 369.309 158.937C370.468 156.338 372.167 153.977 374.309 151.988C376.451 149.999 378.994 148.421 381.793 147.345C384.592 146.268 387.591 145.714 390.62 145.714V145.714V189.933Z" fill="#FFD037"/>
<path id="Vector_54" d="M384.67 187.166C384.67 189.836 387.002 192.001 389.878 192.001C392.754 192.001 395.085 189.836 395.085 187.166V148.473C395.085 145.802 392.754 143.637 389.878 143.637C387.002 143.637 384.67 145.802 384.67 148.473V187.166Z" fill="#6A5C99"/>
<path id="Vector_55" d="M540.466 84.563C531.398 67.0596 511.65 45.8954 469.082 44.2013V44.1502H468.568L453.487 44.8142V44.8824C411.203 46.6872 391.546 67.7747 382.507 85.2186C376.486 97.044 373.29 109.938 373.137 123.018L378.344 122.899L383.552 122.788C383.776 111.143 386.661 99.6756 392.014 89.1432C403.493 67.2469 424.616 55.6092 454.789 54.528L468.128 53.8384C498.319 54.9111 519.452 66.5658 530.921 88.4536C536.284 98.99 539.174 110.464 539.402 122.115L544.61 122.226L549.817 122.345C549.667 109.273 546.477 96.3846 540.466 84.563Z" fill="#FFD037"/>
<path id="Vector_56" d="M778.371 492.922H68.1014V670H778.371V492.922Z" fill="#D6D6E3"/>
<path id="Vector_57" opacity="0.1" d="M778.371 504.841H68.1014V527.827H778.371V504.841Z" fill="black"/>
<path id="Vector_58" d="M826 490.368H20.4543V513.355H826V490.368Z" fill="#D6D6E3"/>
</g>
<defs>
<linearGradient id="paint0_linear" x1="423.232" y1="501.861" x2="423.232" y2="40.0127" gradientUnits="userSpaceOnUse">
<stop stop-color="#808080" stop-opacity="0.25"/>
<stop offset="0.54" stop-color="#808080" stop-opacity="0.12"/>
<stop offset="1" stop-color="#808080" stop-opacity="0.1"/>
</linearGradient>
<clipPath id="clip0">
<rect width="826" height="670" fill="white"/>
</clipPath>
</defs>
</svg>
